<svg xmlns="http://www.w3.org/2000/svg" xmlns:xlink="http://www.w3.org/1999/xlink" style="width: 0; height: 0; visibility: hidden; position: absolute;" aria-hidden="true"><symbol  viewBox='0 0 512 512' id='cart'>
    <path d="M41.387 65.613c-1.878.866-4.33 2.57-5.45 3.786-2.009 2.182-4.582 9.907-3.969 11.914.174.569.546 2.083.826 3.365.634 2.893 4.985 7.943 8.506 9.872 2.303 1.262 6.199 1.485 29.991 1.716l27.345.266 22.898 129.867c14.432 81.849 23.455 130.972 24.405 132.854 1.735 3.441 3.561 5.204 7.405 7.151 2.483 1.257 14.718 1.383 134.648 1.383 127.761 0 132.016-.051 135.082-1.616 5.589-2.853 8.713-7.933 8.713-14.171 0-6.238-3.124-11.318-8.713-14.171-3.063-1.563-7.157-1.616-126.367-1.616H173.505l-2.699-15.233c-1.485-8.378-2.699-15.674-2.699-16.213 0-.734 30.864-.982 122.666-.985 81.87-.003 123.724-.298 125.845-.888 4.133-1.147 9.792-5.504 12.906-9.934 2.28-3.244 3.669-9.485 17.759-79.76 16.357-81.578 16.106-79.82 12.509-87.471-1.992-4.238-7.997-10.052-12.484-12.087-2.9-1.316-15.347-1.447-158.229-1.658l-155.081-.229-.422-1.904c-.232-1.047-1.598-8.624-3.035-16.838-1.437-8.213-2.972-16.287-3.412-17.942-.96-3.615-6.13-8.77-10.136-10.105-1.974-.657-13.975-.96-37.547-.947-31.858.017-34.921.145-38.059 1.594m386.986 78.83c0 .401-24.69 123.84-25.172 125.85l-.46 1.92H162.269l-.477-2.346c-1.103-5.424-21.845-123.831-21.845-124.701 0-.698 38.636-.953 144.213-.953 79.317 0 144.213.104 144.213.23m-259.11 240.444c-8.868 1.755-18.433 9.385-22.42 17.884-1.908 4.068-2.203 5.837-2.203 13.229 0 6.971.341 9.272 1.863 12.565 9.91 21.454 37.307 25.97 53.05 8.745 5.747-6.288 8.052-12.39 8.052-21.31 0-8.657-2.301-14.945-7.643-20.887-8.024-8.925-18.926-12.556-30.699-10.226m222.744.266c-9.427 2.4-18.289 10.209-21.737 19.155-2.594 6.732-2.588 16.668.014 23.422 2.593 6.729 8.988 13.543 15.909 16.949 16.08 7.917 35.551.671 43.304-16.114 1.522-3.293 1.863-5.594 1.863-12.565 0-7.392-.295-9.161-2.203-13.229-6.31-13.452-22.8-21.272-37.15-17.618" fill-rule="evenodd"></path>
  </symbol><symbol  viewBox='0 0 512 512' id='chevron-back'>
    <path d="M321.617 89.031c-2.162.603-5.81 2.489-8.107 4.191-2.297 1.703-36.852 35.856-76.788 75.897-80.064 80.273-76.466 76.18-76.466 86.974 0 10.769-3.304 7.032 78.924 89.257 79.41 79.407 77.133 77.345 86.652 78.472 11.716 1.388 23.385-7.606 25.659-19.778.797-4.266-.227-11.354-2.213-15.318-.714-1.426-30.532-31.873-66.262-67.659L218.053 256l64.963-65.067c35.73-35.786 65.548-66.233 66.262-67.659 3.308-6.603 3.243-15.74-.159-22.341-4.877-9.463-17.168-14.782-27.502-11.902" fill-rule="evenodd"></path>
  </symbol><symbol  viewBox='0 0 16 16' id='close'>
    
<path d="M8 9.10096L12.3485 13.4494C12.6525 13.7535 13.1454 13.7535 13.4494 13.4494C13.7535 13.1454 13.7535 12.6525 13.4494 12.3485L9.10096 8L13.4494 3.65151C13.7535 3.34749 13.7535 2.85458 13.4494 2.55055C13.1454 2.24653 12.6525 2.24653 12.3485 2.55055L8 6.89904L3.65144 2.55048C3.34742 2.24646 2.8545 2.24646 2.55048 2.55048C2.24646 2.8545 2.24646 3.34742 2.55048 3.65144L6.89904 8L2.55048 12.3486C2.24646 12.6526 2.24646 13.1455 2.55048 13.4495C2.8545 13.7535 3.34742 13.7535 3.65144 13.4495L8 9.10096Z"></path>

  </symbol><symbol  id='filter'>
    <path d="M18.292 19a2.5 2.5 0 0 1-4.584 0H4a1 1 0 1 1 0-2h9.708a2.5 2.5 0 0 1 4.584 0H20a1 1 0 1 1 0 2h-1.708Zm-8-6a2.5 2.5 0 0 1-4.584 0H4a1 1 0 1 1 0-2h1.708a2.5 2.5 0 0 1 4.584 0H20a1 1 0 1 1 0 2h-9.708ZM16 8.5A2.5 2.5 0 0 0 18.292 7H20a1 1 0 1 0 0-2h-1.708a2.5 2.5 0 0 0-4.584 0H4a1 1 0 1 0 0 2h9.708A2.5 2.5 0 0 0 16 8.5Z" clip-rule="evenodd"></path>
  </symbol><symbol  viewBox='0 0 24 24' id='search'>
    <path d="m20.7 19.28-4.23-4.24a7.5 7.5 0 1 0-1.42 1.42l4.23 4.25a1 1 0 0 0 1.43-1.43ZM16 10.5a5.5 5.5 0 1 1-11 0 5.5 5.5 0 0 1 11 0Z"></path>
  </symbol></svg>